<?xml version="1.0" standalone="no"?>
<!DOCTYPE svg PUBLIC "-//W3C//DTD SVG 20010904//EN"
 "http://www.w3.org/TR/2001/REC-SVG-20010904/DTD/svg10.dtd">
<svg version="1.0" xmlns="http://www.w3.org/2000/svg"
 width="340.460386pt" height="215.878551pt" viewBox="0 0 340.460386 215.878551"
 preserveAspectRatio="xMidYMid meet">
<metadata>
Created by potrace 1.16, written by Peter Selinger 2001-2019
</metadata>
<g transform="translate(-0.344916,216.000000) scale(1.000000,-1.000000)"
fill="#000000" stroke="none">
<path d="M201 208 c-3 -4 -6 -8 -7 -9 -1 -1 -1 -1 1 -1 2 0 3 0 3 1 -2 2 1 5
4 5 3 0 3 0 2 -2 0 -1 -1 -3 -1 -3 -1 -1 0 -1 3 -1 2 0 3 0 2 1 -1 0 -1 2 0 9
0 4 0 8 0 8 -1 0 -3 -3 -7 -8z m4 -3 c-1 0 -2 0 -2 0 -2 0 -2 1 0 3 l2 3 0 -3
c0 -1 0 -2 0 -3z"/>
<path d="M134 201 c-22 -4 -40 -15 -53 -32 -13 -16 -20 -35 -20 -56 0 -25 8
-45 24 -63 13 -13 26 -21 45 -26 11 -3 34 -3 46 0 28 8 52 28 62 55 4 9 6 20
6 27 l0 5 46 0 c32 0 45 0 45 1 -1 2 -141 82 -149 85 -4 2 -11 4 -15 4 -10 2
-28 2 -37 0z m41 -3 c4 -1 11 -3 14 -5 5 -2 6 -3 5 -4 -3 -2 -130 -74 -131
-74 0 1 0 5 1 9 5 38 34 68 72 75 10 2 29 2 39 -1z m22 -73 c-1 0 -2 0 -4 0
-2 0 -4 0 -5 0 -3 -1 -3 -1 -3 -7 l0 -5 -14 0 c-12 0 -13 0 -16 2 l-3 2 -2 -2
c-3 -2 -3 -2 -43 -2 l-40 1 65 37 65 37 0 -31 c0 -17 0 -31 0 -32z m21 47 c8
-8 13 -17 18 -27 3 -7 6 -22 6 -28 l0 -4 -21 0 -22 0 0 38 0 37 6 -4 c3 -3 9
-8 13 -12z m56 -27 c29 -17 54 -31 54 -31 1 -1 -18 -1 -41 -1 l-42 1 -1 7 c-1
5 -2 11 -3 14 -2 9 -9 24 -15 31 -7 10 -7 10 -7 10 1 0 25 -14 55 -31z m-77
-27 c0 -4 -1 -5 -5 -5 l-4 0 0 4 0 5 5 0 4 0 0 -4z m-48 -8 c1 -1 2 -2 4 -2 1
0 2 1 3 2 1 1 5 1 21 1 l20 0 0 -38 0 -38 -7 -4 c-24 -11 -52 -10 -76 1 -29
14 -48 41 -51 72 l0 7 42 0 c37 0 43 0 44 -1z m89 -4 c-1 -2 -11 -19 -21 -36
l-18 -31 0 36 0 36 21 0 21 0 -3 -5z m3 -9 c-4 -21 -16 -42 -33 -55 -4 -2 -6
-4 -6 -3 1 2 39 68 40 68 0 -1 -1 -5 -1 -10z"/>
<path d="M175 104 c1 0 0 -2 -1 -8 -1 -3 -3 -7 -3 -8 -1 -1 -1 -1 1 -1 1 0 2
0 2 1 -1 0 0 3 1 7 1 4 2 5 2 3 0 -5 1 -11 2 -11 0 0 2 3 4 6 2 3 4 5 5 5 0
-1 -2 -9 -3 -10 -1 -1 0 -1 2 -1 2 0 3 0 2 1 0 2 4 16 5 16 1 1 0 1 -1 1 -2 0
-4 -1 -7 -7 l-5 -7 -1 7 c-1 7 -1 7 -4 7 -2 0 -2 0 -1 -1z"/>
<path d="M146 102 c-6 -4 -8 -11 -4 -15 4 -4 12 -1 15 6 2 4 2 8 -1 10 -3 2
-8 1 -10 -1z m9 -1 c1 -3 -1 -9 -4 -12 -7 -8 -11 3 -4 11 3 4 7 4 8 1z"/>
<path d="M46 119 c1 -2 -2 -15 -5 -17 -1 -1 0 -1 5 -1 5 0 6 0 8 2 2 2 3 4 0
6 -1 1 -1 1 1 3 1 0 2 2 2 4 0 2 -3 4 -9 4 -3 0 -3 0 -2 -1z m8 -3 c0 -2 -2
-5 -5 -5 -1 0 -1 1 0 5 1 3 4 3 5 0z m-2 -9 c0 -3 -1 -4 -3 -4 -4 -2 -4 -1 -3
3 1 3 2 4 3 4 2 0 3 -1 3 -3z"/>
<path d="M326 106 c1 -1 1 -2 -1 -8 -1 -4 -3 -8 -4 -9 -1 -1 0 -1 6 -1 6 1 7
1 10 4 2 1 3 4 4 6 0 2 0 3 -3 6 -2 3 -4 3 -8 3 -3 0 -5 0 -4 -1z m10 -2 c0
-1 1 -3 1 -5 0 -5 -3 -9 -8 -10 -2 0 -3 0 -3 2 0 1 2 9 3 13 1 1 5 1 7 0z"/>
<path d="M253 105 c-3 -2 -6 -6 -7 -10 -1 -7 9 -11 14 -6 l2 2 -3 -1 c-4 -3
-8 -2 -9 1 -3 8 8 18 12 11 1 -2 1 -2 1 0 1 0 1 2 1 2 0 2 -8 2 -11 1z"/>
<path d="M200 27 c1 0 0 -2 -1 -7 -1 -4 -3 -8 -3 -8 -2 -2 -1 -3 6 -3 6 0 6 0
7 3 1 3 1 4 -1 1 -2 -1 -4 -2 -6 -2 -3 0 -3 0 -2 3 1 5 3 6 5 4 1 -2 1 -2 2 0
1 4 1 5 0 3 -2 -1 -5 -1 -5 0 0 0 0 2 1 3 1 3 6 4 7 2 0 -2 2 -2 2 1 0 1 -2 1
-7 1 -3 0 -6 0 -5 -1z"/>
<path d="M1 0 c1 0 1 0 2 0 0 1 -1 1 -2 1 -1 0 -1 0 0 -1z"/>
</g>
</svg>
