<?xml version="1.0" standalone="no"?>
<!DOCTYPE svg PUBLIC "-//W3C//DTD SVG 20010904//EN"
 "http://www.w3.org/TR/2001/REC-SVG-20010904/DTD/svg10.dtd">
<svg version="1.0" xmlns="http://www.w3.org/2000/svg"
 width="672.536643pt" height="328.806090pt" viewBox="0 0 672.536643 328.806090"
 preserveAspectRatio="xMidYMid meet">
<metadata>
Created by potrace 1.16, written by Peter Selinger 2001-2019
</metadata>
<g transform="translate(-0.344916,328.927539) scale(1.000000,-1.000000)"
fill="#000000" stroke="none">
<path d="M461 328 c-1 0 0 -1 1 -1 4 -1 4 -4 -2 -23 -5 -19 -7 -22 -10 -22 -1
0 -2 0 -3 -1 0 -1 5 -1 17 -1 16 1 17 1 22 3 6 4 11 8 14 14 3 7 3 15 0 21 -4
8 -9 10 -26 11 -8 0 -13 0 -13 -1z m27 -5 c4 -3 6 -8 6 -16 -1 -8 -4 -15 -8
-19 -4 -3 -12 -5 -19 -5 -4 0 -5 0 -5 2 0 1 2 10 6 20 3 11 5 19 5 20 0 0 3 0
6 0 4 0 7 -1 9 -2z"/>
<path d="M74 293 c-19 -25 -23 -30 -26 -32 -2 -1 -3 -2 -3 -2 4 0 14 0 15 0 0
1 -1 1 -2 1 -3 1 -3 4 2 9 l3 5 7 0 7 0 0 -6 c-1 -6 -3 -8 -6 -8 -1 0 -2 0 -2
-1 1 0 20 0 21 0 0 1 -1 1 -3 1 -1 1 -3 2 -3 2 -1 1 0 11 1 22 2 21 2 24 1 24
0 0 -6 -7 -12 -15z m4 -8 c0 -4 -1 -7 -2 -8 0 0 -3 0 -5 0 l-5 1 6 8 c4 4 7 8
7 8 0 -1 0 -4 -1 -9z"/>
<path d="M99 272 c0 0 0 -5 0 -9 0 -9 1 -9 3 -9 1 0 2 0 2 5 l0 5 25 -25 c23
-24 34 -35 93 -95 12 -13 30 -31 39 -40 15 -16 16 -16 14 -18 -5 -4 -5 -4 103
-4 78 0 104 0 104 1 1 2 0 4 -3 4 -2 0 0 4 28 57 17 30 30 56 30 56 0 1 2 1 3
0 3 -2 5 -2 5 1 0 1 -11 13 -28 30 -15 16 -30 31 -34 35 l-6 7 -189 0 c-104 0
-189 0 -189 -1z m402 -32 c15 -16 28 -29 27 -29 0 0 -10 2 -22 4 -57 10 -136
24 -139 25 -10 1 -164 21 -188 24 -15 1 -28 3 -29 3 -1 1 72 1 161 1 l162 0
28 -28z m-353 22 c12 -2 51 -7 86 -11 100 -13 133 -17 134 -17 0 0 7 -12 17
-25 56 -83 78 -116 78 -116 0 -1 -3 1 -7 2 -8 4 -10 5 -10 3 -1 -2 0 -3 7 -7
l7 -4 -88 0 -87 0 -42 43 c-23 23 -52 53 -64 66 -12 12 -32 32 -44 44 -18 19
-21 22 -19 22 1 1 2 2 2 3 -1 1 0 1 3 1 2 -1 14 -2 27 -4z m265 -36 c57 -10
99 -18 110 -20 5 -1 10 -1 10 -2 0 0 -60 -113 -61 -113 -1 0 -5 5 -9 12 -4 6
-26 38 -47 70 -22 32 -40 58 -40 59 0 0 4 0 37 -6z m53 -137 c1 -2 1 -2 -1 -2
-1 0 -2 0 -1 2 0 1 0 2 0 2 0 0 1 -1 2 -2z"/>
<path d="M126 259 c-1 -3 1 -4 9 -8 5 -3 7 -3 8 -2 2 2 0 4 -7 7 -8 4 -10 5
-10 3z"/>
<path d="M152 244 c0 -1 3 -3 8 -6 7 -3 8 -4 10 -3 2 2 1 4 -7 7 -8 4 -11 5
-11 2z"/>
<path d="M179 232 c0 -3 1 -4 8 -8 8 -3 10 -3 10 0 0 1 -2 3 -7 5 -8 4 -10 5
-11 3z"/>
<path d="M322 225 c-10 -3 -17 -10 -20 -19 -4 -9 -2 -19 4 -24 5 -5 17 -7 25
-3 4 2 11 9 9 9 -1 0 -3 -1 -4 -3 -8 -8 -21 -6 -26 3 -4 7 -1 21 7 29 4 5 8 7
15 7 6 0 9 -2 10 -8 0 -3 1 -5 1 -5 1 1 5 15 5 16 -1 0 -2 0 -3 -1 -2 -1 -3
-1 -7 0 -5 1 -11 1 -16 -1z"/>
<path d="M358 226 c-1 -2 -3 -12 -3 -17 0 -4 0 -4 1 -3 1 1 3 5 5 10 4 6 4 8
3 10 -2 1 -4 1 -6 0z"/>
<path d="M206 218 c-1 -2 0 -3 9 -8 6 -2 9 -2 9 1 0 1 -13 9 -16 9 0 0 -1 -1
-2 -2z"/>
<path d="M233 206 c0 0 -1 -1 -1 -2 0 -3 16 -11 18 -9 2 2 1 4 -7 8 -4 2 -8 4
-8 4 0 0 -1 0 -2 -1z"/>
<path d="M259 192 c0 -3 1 -4 8 -8 8 -4 10 -4 10 -1 0 2 -1 3 -8 6 -8 4 -9 5
-10 3z"/>
<path d="M286 178 c-2 -2 0 -3 7 -6 7 -5 11 -5 11 -2 0 2 -2 3 -7 6 -8 3 -10
4 -11 2z"/>
<path d="M312 165 c0 -3 1 -4 8 -8 8 -3 10 -4 10 -1 1 2 0 3 -7 7 -8 3 -10 4
-11 2z"/>
<path d="M340 152 c-2 -2 -1 -4 6 -7 7 -4 10 -5 11 -3 1 2 0 4 -8 7 -7 4 -8 4
-9 3z"/>
<path d="M366 139 c-2 -3 -1 -4 8 -8 8 -4 10 -4 10 -1 0 1 -2 3 -8 6 -4 2 -8
4 -8 4 -1 0 -1 -1 -2 -1z"/>
<path d="M392 124 c-1 -2 1 -3 9 -7 12 -6 14 -1 3 5 -8 4 -11 5 -12 2z"/>
<path d="M420 112 c-1 0 -1 -1 -1 -2 0 -2 15 -10 17 -9 3 1 2 3 -7 8 -8 4 -8
4 -9 3z"/>
<path d="M559 261 c0 -1 1 -1 2 -1 1 0 2 -1 3 -2 0 0 -2 -9 -5 -18 -6 -23 -7
-24 -10 -25 -2 0 -3 -1 -3 -1 0 -1 19 -1 20 0 0 1 -1 1 -2 1 -4 0 -4 1 -1 12
l3 10 5 0 c6 0 8 -2 8 -6 -1 -2 -1 -3 0 -3 1 1 6 18 6 19 -1 0 -2 -1 -4 -3 -2
-3 -3 -3 -8 -4 l-6 0 0 3 c1 1 2 6 3 9 l2 7 9 0 c9 0 12 -2 12 -7 0 -4 1 -3 3
3 1 2 1 5 2 6 0 1 -3 1 -19 1 -13 0 -20 0 -20 -1z"/>
<path d="M99 243 c0 -1 0 -5 0 -10 0 -8 1 -8 3 -8 1 0 2 0 2 9 0 8 -1 10 -2
10 -1 0 -2 0 -3 -1z"/>
<path d="M99 204 c0 -9 1 -9 3 -9 1 0 2 0 2 9 0 9 -1 10 -3 10 -2 0 -2 0 -2
-10z"/>
<path d="M550 193 c-2 -2 -1 -3 4 -9 5 -5 9 -6 11 -4 0 1 -12 14 -13 14 0 0
-1 -1 -2 -1z"/>
<path d="M99 184 c0 -1 0 -5 0 -10 0 -8 1 -8 3 -8 1 0 2 0 2 9 0 8 -1 10 -2
10 -1 0 -2 0 -3 -1z"/>
<path d="M570 173 c-2 -1 -1 -5 4 -10 6 -5 9 -6 9 -2 0 2 -11 13 -13 12z"/>
<path d="M99 145 c0 -9 1 -9 3 -9 1 0 2 0 2 9 0 9 -1 10 -3 10 -2 0 -2 0 -2
-10z"/>
<path d="M588 151 c-1 -2 9 -12 12 -12 4 0 3 1 -3 8 -5 6 -8 7 -9 4z"/>
<path d="M608 132 c-2 -1 -1 -4 5 -9 5 -5 6 -6 7 -5 3 2 2 3 -4 9 -5 6 -7 7
-8 5z"/>
<path d="M99 125 c0 -1 0 -5 0 -10 l1 -8 12 0 12 0 0 -10 c0 -9 0 -10 -2 -10
-1 0 -2 -1 -2 -3 l0 -2 10 0 c9 0 10 1 10 3 0 1 -1 2 -5 2 l-5 0 0 12 0 13
-13 0 -13 0 0 7 c0 5 -1 7 -2 7 -1 0 -2 0 -3 -1z"/>
<path d="M627 112 c-2 -1 -1 -4 5 -9 6 -6 7 -7 8 -4 1 1 0 3 -7 10 -4 4 -4 4
-6 3z"/>
<path d="M99 92 l0 -5 -5 0 c-4 0 -4 -1 -4 -2 0 -2 0 -3 9 -3 10 0 10 0 10 2
0 2 -1 3 -3 3 -1 0 -2 1 -2 4 0 4 -1 5 -3 5 -2 0 -2 0 -2 -4z"/>
<path d="M645 91 c0 -1 0 -2 0 -3 1 0 0 -1 -1 -1 0 -1 -1 -2 -1 -3 0 -2 1 -2
6 -2 7 0 8 2 4 7 -3 3 -7 4 -8 2z"/>
<path d="M35 85 c-1 -2 1 -3 7 -3 5 0 6 1 6 3 0 1 -1 2 -6 2 -5 0 -6 0 -7 -2z"/>
<path d="M58 85 c-1 -2 2 -3 11 -3 9 0 10 1 10 3 0 1 -1 2 -10 2 -8 0 -10 0
-11 -2z"/>
<path d="M150 85 c-1 -2 2 -3 11 -3 9 0 10 1 10 3 0 1 -1 2 -10 2 -8 0 -10 0
-11 -2z"/>
<path d="M181 85 c-1 -2 2 -3 11 -3 9 0 10 1 10 3 0 1 -1 2 -10 2 -8 0 -10 0
-11 -2z"/>
<path d="M212 85 c-1 -2 2 -3 11 -3 9 0 10 1 10 3 0 1 -1 2 -10 2 -8 0 -10 0
-11 -2z"/>
<path d="M244 86 c-1 0 -1 -1 -1 -2 0 -2 1 -2 10 -2 7 0 10 0 10 1 1 3 -1 4
-10 4 -5 0 -9 0 -9 -1z"/>
<path d="M492 85 c-1 -2 2 -3 11 -3 9 0 10 1 10 3 0 1 -1 2 -10 2 -8 0 -10 0
-11 -2z"/>
<path d="M523 85 c0 -3 0 -3 10 -3 9 0 9 0 9 3 0 2 0 2 -9 2 -10 0 -10 0 -10
-2z"/>
<path d="M552 85 c-1 -2 2 -3 11 -3 9 0 10 1 10 3 0 1 -1 2 -10 2 -8 0 -10 0
-11 -2z"/>
<path d="M584 86 c-1 0 -1 -1 -1 -2 0 -2 1 -2 10 -2 9 0 10 1 10 3 0 1 -1 2
-10 2 -5 0 -9 0 -9 -1z"/>
<path d="M614 86 c-1 0 -1 -1 -1 -2 0 -2 1 -2 10 -2 9 0 10 1 10 3 0 1 -1 2
-10 2 -5 0 -9 0 -9 -1z"/>
<path d="M97 75 c-14 -3 -25 -16 -25 -29 0 -17 14 -24 33 -19 4 1 4 2 6 10 4
11 4 12 8 12 1 0 2 0 2 1 0 1 -4 1 -10 1 -7 0 -11 0 -11 -1 0 -1 1 -1 2 -1 5
0 5 -2 3 -10 -1 -4 -3 -8 -3 -9 -1 -1 -4 -1 -8 -1 -6 0 -6 0 -10 4 -7 7 -5 24
5 34 10 9 26 8 26 -3 0 -5 2 -5 3 0 1 3 1 6 2 8 1 3 0 4 -2 3 -1 -1 -3 -1 -8
0 -6 1 -7 1 -13 0z"/>
<path d="M650 75 c-10 -3 -18 -10 -22 -18 -5 -13 -3 -24 7 -29 9 -5 19 -3 27
3 2 3 4 5 4 6 -1 0 -2 -1 -4 -3 -5 -4 -7 -5 -14 -5 -5 0 -6 0 -9 3 -5 4 -6 10
-5 17 3 17 16 28 28 23 3 -1 6 -6 6 -11 0 -4 2 -1 3 6 3 9 2 9 0 8 -2 -1 -4
-1 -9 0 -6 1 -6 1 -12 0z"/>
<path d="M256 74 c0 -1 1 -1 3 -1 1 0 2 -1 3 -1 0 -2 -11 -40 -13 -42 -1 -1
-2 -2 -3 -2 -1 0 -2 0 -2 -1 0 -1 5 -1 15 -1 12 0 15 1 18 3 7 3 10 12 7 17
-1 1 -2 3 -4 4 l-3 2 3 1 c12 4 13 18 1 21 -5 1 -25 1 -25 0z m24 -5 c4 -5 1
-12 -6 -15 -3 -1 -9 -1 -9 0 -1 1 3 15 5 17 1 2 8 0 10 -2z m-10 -19 c1 0 3
-1 5 -2 4 -5 2 -14 -5 -17 -5 -2 -11 -3 -12 -1 -1 0 0 3 1 7 1 3 2 7 3 10 1 4
1 4 3 4 2 -1 4 -1 5 -1z"/>
<path d="M449 74 c0 0 1 -1 2 -1 4 -1 3 -4 -2 -23 -6 -19 -7 -22 -10 -22 -1 0
-2 0 -2 -1 -1 -1 6 -1 18 -1 l20 0 2 7 c1 3 2 7 2 7 -1 0 -3 -2 -5 -4 -3 -4
-6 -5 -8 -6 -6 -1 -15 -1 -15 0 0 1 1 5 2 10 l3 10 4 0 c5 0 7 -1 7 -6 0 -1 0
-3 1 -3 1 0 6 18 5 19 0 0 -1 -1 -3 -3 -2 -3 -3 -3 -8 -4 -3 0 -5 0 -5 1 0 0
1 4 3 9 l2 9 6 0 c8 0 11 -2 12 -6 1 -2 2 -3 2 -3 1 0 3 9 3 11 0 1 -8 1 -18
1 -10 0 -18 0 -18 -1z"/>
<path d="M1 0 c1 0 1 0 2 0 0 1 -1 1 -2 1 -1 0 -1 0 0 -1z"/>
</g>
</svg>
