<?xml version="1.0" standalone="no"?>
<!DOCTYPE svg PUBLIC "-//W3C//DTD SVG 20010904//EN"
 "http://www.w3.org/TR/2001/REC-SVG-20010904/DTD/svg10.dtd">
<svg version="1.0" xmlns="http://www.w3.org/2000/svg"
 width="301.257533pt" height="246.606387pt" viewBox="0 0 301.257533 246.606387"
 preserveAspectRatio="xMidYMid meet">
<metadata>
Created by potrace 1.16, written by Peter Selinger 2001-2019
</metadata>
<g transform="translate(-12.414278,262.856823) scale(1.000000,-1.000000)"
fill="#000000" stroke="none">
<path d="M279 261 c-9 -6 -8 -18 2 -18 4 0 8 2 8 4 0 1 -1 0 -3 -1 -3 -3 -5
-3 -8 0 -5 5 3 18 9 15 1 -1 2 -2 2 -3 0 0 0 -1 1 -1 1 0 1 1 1 1 0 1 0 2 1 3
0 2 -9 2 -13 0z"/>
<path d="M280 221 l0 -20 -55 -23 c-36 -15 -55 -23 -55 -22 -2 2 -3 1 -3 -1 1
-1 -12 -12 -69 -56 -38 -31 -70 -56 -69 -56 0 -1 53 -1 127 -1 l126 0 0 100
c0 65 0 99 -1 99 -1 0 -1 -7 -1 -20z m-2 -26 c-1 -2 -5 -12 -9 -22 l-7 -19 -4
1 c-1 0 -4 0 -5 -1 -1 0 0 -1 3 -1 l5 0 -13 -32 c-11 -28 -12 -31 -14 -29 -2
2 -3 0 -1 -3 2 -1 1 -4 -6 -22 -5 -11 -8 -20 -9 -20 0 1 -9 22 -20 47 -14 31
-20 47 -20 47 1 1 2 1 3 0 1 0 2 0 2 1 0 0 1 2 3 3 4 1 4 2 1 7 -1 3 -2 5 -2
5 0 1 91 41 93 41 1 0 0 -1 0 -3z m2 -21 c0 -16 0 -19 -1 -19 -1 0 -2 0 -2 -1
0 -1 1 -1 2 -2 0 0 1 -2 1 -4 l0 -4 -5 0 -5 0 0 5 c0 3 0 4 2 4 0 0 1 0 1 1 0
1 -2 1 -4 1 -2 0 -4 0 -4 1 0 1 14 37 15 37 0 0 0 -9 0 -19z m-97 -18 c0 -1
-1 -1 -2 -1 -1 0 -2 0 -2 -1 -1 -1 0 -1 2 -1 2 0 3 -1 4 -2 2 -3 1 -4 -2 -5
-2 -1 -3 -1 -4 1 -2 1 -4 1 -2 -1 1 -2 1 -3 0 -3 0 0 -1 2 -2 3 -2 5 -1 8 3
10 3 1 4 1 5 0z m85 -10 l1 -4 5 -1 6 0 0 -42 0 -41 -7 0 -6 0 -1 -7 0 -6 -23
0 c-12 0 -22 0 -22 1 0 1 14 37 16 40 0 1 7 17 14 35 13 32 13 34 15 32 1 -1
2 -3 2 -7z m-74 -49 c12 -28 22 -51 22 -51 0 -1 -10 -1 -22 -1 -21 0 -23 0
-23 2 0 1 0 1 -1 0 -1 -1 -3 -2 -6 -2 l-4 0 0 4 0 4 6 0 5 -1 0 4 c0 2 0 4 -1
4 -1 0 -1 -1 -1 -2 0 -2 -1 -2 -5 -2 l-5 0 -1 -6 0 -5 -62 0 c-34 0 -62 0 -62
1 1 0 31 24 68 53 62 48 67 52 68 50 1 -1 12 -24 24 -52z m81 -47 c0 1 -1 2
-2 3 -1 2 -1 2 3 2 4 0 4 0 4 -4 0 -4 -2 -6 -7 -6 l-5 0 0 5 0 5 4 -3 c1 -2 3
-3 3 -2z"/>
<path d="M191 154 c0 -1 2 -1 4 -1 2 0 4 0 4 1 0 1 -2 1 -4 1 -2 0 -4 0 -4 -1z"/>
<path d="M204 154 c-1 -1 1 -1 4 -1 2 0 4 0 4 1 -1 1 -3 1 -4 1 -2 0 -4 0 -4
-1z"/>
<path d="M216 154 c-1 -1 1 -1 4 -1 2 0 4 0 4 1 -1 1 -3 1 -4 1 -2 0 -4 0 -4
-1z"/>
<path d="M228 154 c0 -1 2 -1 4 -1 2 0 4 0 4 1 0 1 -2 1 -4 1 -2 0 -4 0 -4 -1z"/>
<path d="M241 154 c-1 -1 0 -1 3 -1 2 0 4 0 4 1 0 1 -2 1 -3 1 -2 0 -4 0 -4
-1z"/>
<path d="M186 138 c-1 -1 5 -7 6 -6 0 1 -1 2 -3 4 -1 2 -3 3 -3 2z"/>
<path d="M195 128 c0 -1 5 -5 6 -5 0 1 -1 2 -2 4 -2 2 -4 3 -4 1z"/>
<path d="M204 119 c0 -1 4 -5 6 -5 1 0 0 1 -1 3 -3 3 -5 4 -5 2z"/>
<path d="M213 110 c0 -1 6 -6 6 -5 1 0 0 2 -2 3 -2 3 -4 4 -4 2z"/>
<path d="M223 101 c-1 -1 5 -7 6 -6 0 1 -1 2 -3 4 -1 2 -3 3 -3 2z"/>
<path d="M241 82 c0 -1 4 -5 6 -5 1 0 0 1 -1 3 -2 3 -5 4 -5 2z"/>
<path d="M250 73 c0 -1 4 -5 6 -5 2 0 1 1 -1 4 -3 2 -5 3 -5 1z"/>
<path d="M260 63 c1 -3 5 -5 6 -4 0 1 -4 6 -6 6 -1 0 -1 0 0 -2z"/>
<path d="M169 141 c0 -2 0 -4 1 -4 1 0 1 2 1 4 0 2 0 4 -1 4 -1 0 -1 -2 -1 -4z"/>
<path d="M169 129 c0 -2 0 -4 1 -4 1 0 1 2 1 4 0 2 0 4 -1 4 -1 0 -1 -2 -1 -4z"/>
<path d="M169 117 c0 -2 0 -4 1 -4 1 0 1 2 1 4 0 2 0 4 -1 4 -1 0 -1 -2 -1 -4z"/>
<path d="M170 108 c-1 -1 -1 -7 0 -7 1 -1 1 1 1 3 0 5 0 6 -1 4z"/>
<path d="M170 96 c-1 -1 -1 -7 0 -7 1 -1 1 1 1 3 0 5 0 6 -1 4z"/>
<path d="M169 80 c0 -2 0 -4 1 -4 1 0 1 2 1 4 0 2 0 4 -1 4 -1 0 -1 -2 -1 -4z"/>
<path d="M169 68 c0 -2 0 -4 1 -4 1 0 1 2 1 4 0 2 0 4 -1 4 -1 0 -1 -2 -1 -4z"/>
<path d="M95 227 c0 -1 2 -3 4 -3 1 0 1 0 0 2 -2 2 -4 3 -4 1z"/>
<path d="M102 220 c0 -1 4 -5 6 -5 2 0 1 1 -1 4 -3 2 -5 3 -5 1z"/>
<path d="M293 213 c1 -1 1 -2 -1 -8 -1 -4 -3 -8 -4 -9 -1 -1 -1 -1 2 -1 3 0 4
0 4 1 -1 1 -1 3 0 4 0 3 1 4 3 4 1 0 2 -1 2 -2 0 -2 2 0 3 3 l0 3 -3 -2 c-4
-2 -4 -1 -3 3 1 4 1 4 5 4 2 0 3 0 4 -2 0 -2 0 -2 1 -1 2 3 1 4 -7 4 -4 0 -7
0 -6 -1z"/>
<path d="M111 211 c0 -1 4 -5 6 -5 2 0 1 1 -1 4 -3 2 -5 3 -5 1z"/>
<path d="M121 202 c0 -2 5 -7 6 -5 0 1 -4 6 -5 6 -1 0 -1 -1 -1 -1z"/>
<path d="M130 193 c0 -1 6 -6 6 -5 1 0 0 2 -2 3 -2 3 -4 4 -4 2z"/>
<path d="M140 184 c-1 0 3 -6 5 -6 0 0 1 0 1 1 0 1 -6 6 -6 5z"/>
<path d="M175 180 c0 -2 -3 -12 -5 -16 -1 -2 -1 -2 5 -2 8 0 14 4 15 10 0 3 0
4 -2 6 -2 3 -4 3 -8 4 -5 0 -6 0 -5 -2z m10 -1 c0 -1 1 -3 1 -6 0 -5 -3 -9 -9
-9 -2 0 -3 0 -3 2 1 0 2 4 3 8 1 5 2 6 4 6 1 0 3 -1 4 -1z"/>
<path d="M151 172 c1 -2 3 -3 4 -3 1 1 -4 6 -6 6 -1 0 0 -1 2 -3z"/>
<path d="M158 165 c0 -1 5 -5 6 -5 0 1 -1 2 -2 4 -2 2 -4 3 -4 1z"/>
<path d="M293 161 c1 -1 1 -2 -1 -8 -1 -4 -3 -8 -4 -9 -1 -1 -1 -1 2 -1 2 0 3
0 2 1 0 0 0 2 1 6 1 6 2 6 2 4 1 -1 1 -4 1 -6 0 -2 0 -4 1 -4 0 -1 3 2 5 5 2
3 5 6 5 6 1 -1 -2 -10 -4 -11 -1 -1 -1 -1 2 -1 3 0 4 0 3 1 0 2 4 16 5 17 1 1
1 1 -1 1 -1 0 -3 -2 -7 -7 -5 -6 -6 -7 -6 -5 -1 1 -1 4 -1 6 0 5 -1 6 -4 6 -2
0 -2 0 -1 -1z"/>
<path d="M21 29 c-3 -4 -7 -8 -8 -9 -1 -1 -1 -1 2 -1 2 0 3 0 3 1 -2 2 1 5 4
5 3 0 3 0 2 -2 0 -1 -1 -3 -1 -3 -1 -1 0 -1 3 -1 2 0 3 0 2 1 -1 0 -1 2 1 14
0 2 0 4 -1 4 0 0 -3 -4 -7 -9z m4 0 c0 -2 0 -3 -2 -3 -2 0 -2 0 0 4 2 3 2 3 2
-1z"/>
<path d="M278 36 c0 -2 -3 -13 -5 -16 -1 -2 -1 -2 3 -2 6 0 10 1 11 4 1 3 1 3
0 5 -2 1 -2 2 0 3 3 1 3 6 0 7 -1 1 -4 1 -6 1 -3 0 -4 0 -3 -2z m8 -3 c0 -1
-1 -2 -3 -3 -3 -1 -3 -1 -3 3 1 2 2 3 4 3 2 0 2 -1 2 -3z m-2 -8 c0 -3 -2 -5
-5 -5 -2 0 -2 0 -1 2 0 1 0 3 1 4 0 3 4 2 5 -1z"/>
<path d="M162 35 c2 -1 2 -2 0 -8 -1 -4 -3 -8 -4 -9 -1 -1 -1 -1 2 -1 2 0 3 0
2 1 -1 0 -1 2 1 6 1 3 2 6 2 6 0 1 2 -2 3 -7 2 -4 3 -7 4 -7 0 0 1 4 3 9 1 5
3 9 4 10 1 1 1 1 -2 1 -2 0 -3 0 -3 -4 0 -2 0 -5 -1 -6 -1 -4 -1 -4 -5 5 -2 4
-2 5 -5 5 -2 0 -2 0 -1 -1z"/>
<path d="M213 35 c1 -1 1 -2 -1 -9 -1 -4 -3 -8 -3 -8 -1 -1 2 -1 6 -1 5 0 8 0
8 1 0 0 0 2 1 3 0 1 0 1 -2 -1 -2 -1 -5 -2 -6 -2 -3 0 -3 0 -2 3 0 5 1 5 3 5
1 0 2 -1 2 -2 0 -1 0 -1 1 0 0 1 1 3 1 4 1 2 1 2 -1 0 -4 -2 -4 -1 -4 3 1 4 1
4 4 4 2 0 3 -1 4 -1 0 -3 2 -2 2 0 0 2 -1 2 -7 2 -5 0 -7 0 -6 -1z"/>
</g>
</svg>
