<?xml version="1.0" standalone="no"?>
<!DOCTYPE svg PUBLIC "-//W3C//DTD SVG 20010904//EN"
 "http://www.w3.org/TR/2001/REC-SVG-20010904/DTD/svg10.dtd">
<svg version="1.0" xmlns="http://www.w3.org/2000/svg"
 width="332.517091pt" height="283.378888pt" viewBox="0 0 332.517091 283.378888"
 preserveAspectRatio="xMidYMid meet">
<metadata>
Created by potrace 1.16, written by Peter Selinger 2001-2019
</metadata>
<g transform="translate(-0.344916,283.500337) scale(1.000000,-1.000000)"
fill="#000000" stroke="none">
<path d="M307 282 c-3 -2 -5 -3 -6 -7 -3 -7 0 -13 7 -13 4 0 8 2 8 4 0 1 -1 1
-2 0 -2 -3 -9 -3 -10 0 -2 4 -1 10 4 14 3 3 7 2 9 -1 l1 -2 1 2 c0 4 0 4 -4 4
-2 1 -5 0 -8 -1z"/>
<path d="M307 239 l0 -22 -59 -25 -58 -24 -75 -59 c-42 -33 -76 -60 -76 -61 0
-1 27 -1 135 -1 l136 1 0 105 c0 84 -1 106 -2 107 -1 0 -1 -5 -1 -21z m-2 -28
c-1 -2 -16 -38 -33 -81 -16 -43 -31 -78 -31 -77 -1 1 -43 98 -43 99 0 0 3 2 6
3 3 2 6 3 6 4 0 0 -1 3 -3 6 -1 4 -2 6 -2 6 1 1 100 43 100 43 1 0 0 -1 0 -3z
m2 -75 l0 -73 -7 0 -8 0 0 -7 0 -7 -24 0 -25 0 5 13 c24 60 59 147 59 147 0 0
0 -33 0 -73z m-102 29 c1 -3 2 -5 2 -6 -1 0 -10 -4 -11 -4 0 1 -4 9 -4 10 0 1
8 5 10 5 0 0 2 -2 3 -5z m9 -58 c14 -31 25 -57 25 -58 0 0 -45 0 -98 0 l-97 1
72 57 c40 31 73 57 73 57 0 0 12 -26 25 -57z m93 -52 l0 -6 -6 0 -6 1 -1 4 c0
7 0 7 7 7 l6 0 0 -6z"/>
<path d="M318 227 c1 -2 -3 -18 -5 -19 -1 -1 0 -1 3 -1 2 0 3 0 2 1 0 0 0 2 0
4 2 5 5 6 7 4 1 -2 1 -2 2 1 1 4 1 4 -1 3 -3 -3 -6 -3 -6 0 1 0 1 2 2 4 0 2 1
2 4 2 3 0 4 0 5 -2 0 -2 0 -2 1 0 2 4 1 4 -7 4 -7 0 -8 0 -7 -1z"/>
<path d="M178 193 c0 -2 -4 -16 -6 -18 -1 -1 0 -1 5 -1 11 0 19 7 17 14 -2 5
-4 7 -11 7 -5 0 -6 0 -5 -2z m10 -1 c2 -1 2 -2 2 -6 0 -6 -4 -10 -9 -10 -3 0
-4 0 -4 2 5 15 5 16 7 16 1 0 3 -1 4 -2z"/>
<path d="M33 35 c-4 -4 -7 -9 -9 -10 l-2 -3 2 0 c2 0 3 0 3 1 -2 2 1 5 4 5 2
0 3 0 3 -2 0 -2 -1 -3 -1 -3 -1 -1 0 -1 3 -1 2 0 3 0 2 1 -1 0 -1 3 0 10 1 5
1 9 1 10 -1 0 -3 -3 -6 -8z m2 -2 c0 -2 0 -3 -2 -3 -2 0 -2 0 0 4 2 3 2 3 2
-1z"/>
<path d="M304 41 c1 -1 1 -2 -1 -9 -1 -5 -3 -9 -4 -10 -2 -1 9 -1 12 0 4 2 5
6 3 8 -1 2 -1 2 1 4 5 3 1 8 -7 8 -4 0 -5 0 -4 -1z m9 -3 c1 -2 -2 -5 -4 -5
-2 0 -2 1 -1 5 0 2 4 3 5 0z m-2 -9 c1 -2 0 -5 -3 -6 -4 -2 -4 -1 -4 3 1 2 1
4 2 4 0 2 4 1 5 -1z"/>
<path d="M236 39 c1 -1 1 -2 -1 -8 -1 -4 -3 -9 -4 -10 l-1 -2 7 0 c7 0 8 0 9
2 2 3 1 4 -1 2 -2 -1 -4 -2 -6 -2 l-4 0 1 4 c1 3 2 4 4 4 1 0 2 -1 2 -2 0 -2
3 4 3 6 0 1 0 1 -1 0 -1 -1 -3 -2 -4 -2 -2 0 -2 0 -1 4 1 3 2 4 4 4 2 0 3 -1
4 -2 1 -1 2 -2 2 -1 0 0 0 2 1 2 0 2 -1 2 -8 2 -4 0 -7 0 -6 -1z"/>
<path d="M1 0 c1 0 1 0 2 0 0 1 -1 1 -2 1 -1 0 -1 0 0 -1z"/>
</g>
</svg>
