<?xml version="1.0" standalone="no"?>
<!DOCTYPE svg PUBLIC "-//W3C//DTD SVG 20010904//EN"
 "http://www.w3.org/TR/2001/REC-SVG-20010904/DTD/svg10.dtd">
<svg version="1.0" xmlns="http://www.w3.org/2000/svg"
 width="669.379303pt" height="342.842495pt" viewBox="0 0 669.379303 342.842495"
 preserveAspectRatio="xMidYMid meet">
<metadata>
Created by potrace 1.16, written by Peter Selinger 2001-2019
</metadata>
<g transform="translate(-0.344916,342.963943) scale(1.000000,-1.000000)"
fill="#000000" stroke="none">
<path d="M464 342 c0 -1 1 -1 2 -1 1 0 2 -1 2 -2 1 -1 -6 -27 -10 -37 -1 -3
-2 -4 -4 -5 -2 0 -3 -1 -3 -1 0 -1 6 -1 15 -1 13 1 16 1 20 3 12 5 18 13 18
25 0 10 -5 17 -14 19 -6 1 -26 1 -26 0z m27 -4 c3 -3 5 -8 5 -15 0 -10 -5 -19
-13 -22 -5 -2 -17 -4 -17 -2 -1 1 1 10 5 21 l5 20 6 0 c3 -1 7 -2 9 -2z"/>
<path d="M82 301 c-9 -12 -18 -22 -20 -23 -1 -2 -3 -3 -3 -3 0 -1 3 -1 7 -1 7
0 9 1 6 2 -3 1 -2 4 2 9 l3 5 7 0 c6 0 6 0 6 -3 0 -6 -1 -9 -4 -10 -2 -1 -3
-2 -3 -2 0 -1 18 -1 19 0 0 1 0 1 -1 1 -1 0 -2 1 -3 1 -2 2 -2 3 0 23 2 24 2
23 1 23 0 0 -8 -10 -17 -22z m9 0 l0 -8 -6 0 c-3 0 -5 0 -5 1 0 1 11 15 12 15
0 -1 0 -4 -1 -8z"/>
<path d="M112 287 c-1 -1 15 -18 92 -96 19 -20 48 -50 72 -75 l14 -14 97 0
c97 0 98 1 98 3 0 1 -1 2 -3 2 -1 0 -2 0 -2 1 0 0 14 26 30 56 28 53 29 55 31
53 2 -1 5 -1 5 1 0 1 -15 18 -34 37 l-33 34 -184 0 c-166 0 -183 0 -183 -2z
m391 -31 c15 -15 27 -28 27 -28 0 0 -27 5 -59 11 -32 5 -67 12 -78 14 -11 1
-68 9 -126 17 -58 7 -106 13 -106 13 -1 1 70 1 157 1 l158 0 27 -28z m-340 21
c19 -2 75 -9 123 -15 l87 -12 48 -70 c26 -39 48 -72 49 -72 0 -1 -38 -1 -88
-1 l-89 0 -59 61 c-33 33 -68 69 -78 80 -34 35 -35 35 -32 35 1 -1 19 -3 39
-6z m295 -42 c41 -7 76 -13 76 -14 0 0 -50 -95 -57 -107 l-2 -4 -2 3 c-2 2
-22 33 -47 69 -48 70 -45 67 -45 67 1 0 35 -6 77 -14z"/>
<path d="M331 243 c-6 -2 -11 -5 -15 -10 -5 -5 -7 -8 -8 -15 -2 -14 6 -23 20
-23 7 0 12 2 17 7 2 3 3 4 2 4 -1 0 -2 -1 -3 -1 0 -1 -2 -3 -4 -4 -8 -5 -19
-3 -23 4 -3 6 -1 17 4 25 4 7 9 10 16 11 7 0 11 -2 12 -9 0 -2 1 -4 1 -4 1 0
4 12 4 15 0 1 -1 1 -2 0 -2 -1 -4 -1 -7 0 -6 1 -8 1 -14 0z"/>
<path d="M365 243 c-2 -1 -3 -5 -4 -12 0 -11 1 -10 6 1 3 7 4 9 3 11 -1 1 -3
1 -5 0z"/>
<path d="M560 277 c0 -1 1 -1 2 -1 1 0 2 -1 2 -1 1 -2 -7 -33 -10 -39 -1 -2
-2 -3 -4 -4 -6 -1 -3 -2 7 -2 9 0 12 1 7 2 -4 1 -4 2 0 13 l2 9 5 0 c6 -1 8
-2 8 -6 0 -5 2 -3 4 6 1 5 2 9 2 9 0 1 -2 0 -3 -2 -3 -4 -4 -4 -9 -4 l-6 0 3
9 2 9 9 0 c7 0 8 0 10 -2 1 -1 2 -3 2 -5 -1 -1 0 -2 0 -3 1 0 4 9 4 12 0 1 -6
1 -18 1 -12 0 -19 0 -19 -1z"/>
<path d="M550 209 c-1 -2 10 -12 13 -12 3 0 3 2 -3 8 -5 6 -9 7 -10 4z"/>
<path d="M570 191 c-2 -2 -1 -3 5 -9 5 -6 7 -7 8 -3 0 2 -11 13 -13 12z"/>
<path d="M588 171 c-1 -2 0 -3 4 -8 4 -4 6 -6 8 -6 3 0 3 2 -3 8 -6 8 -7 8 -9
6z"/>
<path d="M606 151 c-1 -3 10 -14 12 -14 4 1 3 3 -3 9 -5 6 -8 7 -9 5z"/>
<path d="M625 130 c0 -3 10 -14 12 -13 3 1 2 4 -3 10 -6 5 -9 7 -9 3z"/>
<path d="M644 111 c-1 -1 -1 -1 0 -2 0 -1 -1 -2 -2 -2 -3 -3 -1 -5 5 -5 7 0 8
2 4 7 -3 3 -6 4 -7 2z"/>
<path d="M495 105 l0 -3 10 0 c9 0 9 0 9 2 0 2 -1 3 -10 3 l-9 0 0 -2z"/>
<path d="M524 105 c-1 -2 1 -3 11 -3 8 0 9 1 9 3 0 1 -1 2 -10 2 -8 0 -9 0
-10 -2z"/>
<path d="M553 105 c-1 -2 1 -3 11 -3 8 0 9 1 9 3 0 1 -1 2 -10 2 -8 0 -9 0
-10 -2z"/>
<path d="M583 105 l0 -3 9 0 c9 0 10 1 10 3 0 1 -1 2 -10 2 l-9 0 0 -2z"/>
<path d="M612 106 c-1 -3 0 -4 9 -4 7 0 10 0 10 1 1 3 -1 4 -10 4 -6 0 -9 0
-9 -1z"/>
<path d="M644 94 c-9 -4 -14 -9 -18 -17 -5 -10 -2 -21 6 -27 4 -3 14 -4 20 -2
5 2 14 10 11 10 -1 0 -3 -1 -4 -3 -7 -7 -21 -7 -25 1 -5 9 -1 24 7 32 4 4 8 5
14 5 6 0 9 -3 10 -9 0 -2 1 -4 1 -4 1 0 4 15 4 16 -1 0 -2 0 -2 -1 -2 -1 -3
-1 -6 0 -7 2 -12 1 -18 -1z"/>
<path d="M265 94 c0 -1 1 -1 2 -1 2 0 3 -1 3 -1 1 -1 -2 -10 -8 -31 -3 -9 -3
-10 -6 -12 -3 -1 -2 -1 11 -1 12 0 15 0 18 2 5 3 8 7 8 12 0 4 -1 5 -3 8 l-4
3 4 2 c9 4 10 14 2 18 -4 2 -27 3 -27 1z m23 -4 c4 -4 2 -12 -5 -15 -3 -1 -10
-1 -10 0 0 1 3 11 5 16 0 2 8 1 10 -1z m-10 -19 c3 0 7 -4 7 -9 0 -7 -5 -11
-14 -11 -3 0 -5 0 -5 1 0 0 4 15 6 19 0 1 1 1 2 1 0 -1 2 -1 4 -1z"/>
<path d="M453 94 c0 0 1 -1 2 -1 4 -1 3 -4 -3 -25 l-5 -17 -4 -2 c-3 -1 -1 -1
16 -1 l19 0 2 6 c1 4 2 7 1 7 0 0 -1 -1 -3 -3 -2 -2 -5 -5 -6 -6 -3 -1 -16 -2
-18 -1 0 1 1 5 3 10 l2 10 5 0 c5 0 7 -3 6 -7 0 -1 0 -2 1 -2 0 0 1 2 2 4 1 3
2 7 3 9 1 6 1 8 -1 5 -3 -5 -5 -6 -10 -6 l-5 0 3 9 2 9 7 0 c6 0 7 0 10 -3 1
-1 2 -3 2 -4 -1 0 -1 -1 0 -1 0 -1 1 1 2 3 1 3 1 5 2 6 0 2 -1 2 -17 2 -11 0
-18 0 -18 -1z"/>
<path d="M1 0 c1 0 1 0 2 0 0 1 -1 1 -2 1 -1 0 -1 0 0 -1z"/>
</g>
</svg>
