<?xml version="1.0" standalone="no"?>
<!DOCTYPE svg PUBLIC "-//W3C//DTD SVG 20010904//EN"
 "http://www.w3.org/TR/2001/REC-SVG-20010904/DTD/svg10.dtd">
<svg version="1.0" xmlns="http://www.w3.org/2000/svg"
 width="312.343021pt" height="205.825600pt" viewBox="0 0 312.343021 205.825600"
 preserveAspectRatio="xMidYMid meet">
<metadata>
Created by potrace 1.16, written by Peter Selinger 2001-2019
</metadata>
<g transform="translate(-0.344916,205.947049) scale(1.000000,-1.000000)"
fill="#000000" stroke="none">
<path d="M180 197 c-7 -9 -7 -9 -4 -9 1 0 2 0 2 1 -2 2 1 5 4 5 2 0 3 -3 1 -5
-1 -1 -1 -1 2 -1 3 0 3 0 2 1 0 1 -1 3 0 4 1 10 1 13 0 13 0 0 -4 -4 -7 -9z
m4 0 c0 -1 -1 -2 -1 -2 -2 0 -2 1 -1 3 2 1 2 1 2 -1z"/>
<path d="M118 192 c-42 -9 -70 -43 -70 -84 0 -24 8 -44 24 -61 41 -40 109 -31
138 18 6 11 9 19 12 38 l0 3 42 0 c26 0 43 0 43 1 1 1 -45 27 -123 71 -8 5
-17 9 -23 11 -9 3 -11 3 -24 4 -8 0 -16 -1 -19 -1z m39 -4 c4 -1 9 -3 13 -5
l5 -2 -59 -34 c-33 -19 -61 -35 -63 -36 l-3 -1 0 6 c1 10 4 18 9 29 5 9 6 12
15 21 14 13 28 21 46 24 9 1 28 0 37 -2z m19 -39 l0 -30 -5 0 -5 0 0 -5 0 -5
-14 0 c-10 0 -13 0 -15 2 -2 1 -3 1 -5 -1 -2 -1 -7 -1 -40 -1 l-38 1 60 34
c33 19 61 34 61 34 1 0 1 -13 1 -29z m13 22 c11 -9 19 -20 24 -33 3 -8 6 -20
6 -23 0 -1 -8 10 -17 26 -23 40 -23 38 -13 30z m10 -30 c10 -17 18 -31 19 -31
0 -1 -9 -1 -19 -1 l-20 0 0 33 c0 28 0 33 1 31 1 -1 10 -15 19 -32z m48 -1
c27 -15 50 -29 52 -29 2 -2 -2 -2 -37 -2 l-40 0 0 4 c-4 23 -9 35 -21 50 -2 3
-4 5 -4 5 0 0 23 -13 50 -28z m-71 -27 l0 -4 -4 0 -4 0 0 4 0 4 4 0 4 0 0 -4z
m-44 -9 c2 -1 6 -1 6 1 0 1 8 1 19 1 l19 0 0 -36 0 -36 -7 -3 c-42 -17 -90 0
-110 39 -5 11 -8 19 -9 29 l0 7 40 0 c35 0 41 0 42 -2z m83 -3 c-20 -34 -35
-61 -36 -61 0 0 0 15 0 33 l0 33 20 0 19 0 -3 -5z m3 -7 c-2 -10 -4 -16 -9
-25 -4 -8 -6 -11 -15 -20 -10 -10 -13 -12 -10 -7 6 12 35 60 35 59 0 -1 0 -4
-1 -7z"/>
<path d="M172 173 c-2 -2 -2 -3 -1 -3 2 0 4 3 4 5 0 2 -2 1 -3 -2z"/>
<path d="M167 165 c0 -1 -1 -3 -1 -3 0 -2 4 3 4 5 0 2 -2 1 -3 -2z"/>
<path d="M163 158 c-2 -3 -3 -5 -1 -5 1 0 3 5 3 6 0 1 -1 1 -2 -1z"/>
<path d="M157 148 c-1 -3 -1 -3 0 -3 1 0 2 1 3 3 1 2 1 3 0 3 -1 0 -2 -1 -3
-3z"/>
<path d="M152 140 c-1 -1 -1 -2 -1 -3 1 -1 5 4 5 5 0 2 -2 1 -4 -2z"/>
<path d="M148 132 c-1 -1 -1 -2 -1 -3 1 0 4 3 4 5 0 2 -2 1 -3 -2z"/>
<path d="M143 124 c-1 -1 -1 -3 0 -3 0 -1 3 3 3 5 0 2 -2 1 -3 -2z"/>
<path d="M138 117 c-1 -3 -1 -5 1 -4 1 1 1 2 2 3 2 3 -1 3 -3 1z"/>
<path d="M156 100 c0 -2 -3 -13 -5 -15 -1 -2 -1 -2 1 -2 2 0 3 0 3 1 -1 2 1
10 2 10 1 0 1 -2 1 -4 0 -6 1 -7 5 -2 2 3 4 5 4 6 2 1 0 -6 -2 -9 -1 -2 -1 -2
2 -2 2 0 3 0 2 1 0 2 4 16 5 16 1 1 1 1 -1 1 -1 0 -3 -2 -7 -6 -4 -6 -5 -7 -5
-5 -1 1 -1 4 -1 5 0 4 -1 6 -3 6 -1 0 -2 -1 -1 -1z"/>
<path d="M129 98 c-5 -2 -8 -11 -4 -14 3 -4 11 -1 13 4 5 9 -1 15 -9 10z m8
-3 c0 -7 -4 -13 -9 -11 -4 1 -2 11 3 14 3 2 5 1 6 -3z"/>
<path d="M34 113 c0 -2 -3 -13 -5 -15 -1 -1 0 -1 4 -1 5 0 6 0 8 2 2 2 3 4 1
6 -1 1 -1 1 0 2 2 1 3 5 1 7 -1 0 -3 0 -5 1 -4 0 -5 0 -4 -2z m7 -3 c0 -2 -1
-3 -3 -3 -1 0 -2 0 -2 1 0 3 1 5 3 5 2 0 2 -1 2 -3z m-1 -7 c0 -1 -3 -5 -5 -5
-2 0 -2 0 -1 3 0 1 0 3 1 3 0 2 4 1 5 -1z"/>
<path d="M299 101 c0 -2 -3 -13 -5 -15 -1 -1 0 -1 5 -1 7 0 11 2 13 7 3 6 -2
11 -10 11 -3 0 -4 0 -3 -2z m9 -2 c3 -4 1 -10 -4 -12 -5 -2 -6 -1 -4 7 2 6 3
7 5 7 1 0 3 -1 3 -2z"/>
<path d="M231 101 c-2 0 -4 -2 -5 -3 -3 -4 -3 -10 -1 -13 3 -2 9 -1 12 1 0 1
1 2 0 2 0 0 -1 -1 -2 -1 -2 -3 -6 -2 -8 1 -1 2 -1 2 0 6 2 4 6 7 9 7 1 -1 2
-2 2 -3 0 -1 0 -2 1 -1 1 0 1 1 1 2 0 2 -1 3 -4 3 -2 0 -4 0 -5 -1z"/>
<path d="M180 28 c0 -2 -4 -16 -5 -16 -1 -1 2 -1 6 -1 4 0 7 0 7 1 0 0 0 2 1
3 0 1 0 1 -2 -1 -3 -2 -8 -3 -8 -1 0 0 0 2 1 3 1 3 4 4 5 2 1 -1 1 -1 1 0 0 1
0 3 1 4 0 1 0 1 -1 0 -1 0 -2 -1 -3 -1 -2 0 -2 0 -1 3 1 2 2 3 4 3 2 0 3 0 3
-1 0 -1 0 -1 1 -1 1 0 1 1 1 2 0 2 -1 2 -6 2 -5 0 -6 0 -5 -1z"/>
<path d="M1 0 c1 0 1 0 2 0 0 1 -1 1 -2 1 -1 0 -1 0 0 -1z"/>
</g>
</svg>
